<?xml version="1.0" encoding="UTF-8"?>
<svg id="_Слой_1" xmlns="http://www.w3.org/2000/svg" version="1.1" viewBox="0 0 18.99 18.99">
  <!-- Generator: Adobe Illustrator 30.6.0, SVG Export Plug-In . SVG Version: 2.1.4 Build 109)  -->
  <defs>
    <style>
      .st0 {
        display: none;
      }
    </style>
  </defs>
  <path class="st0" d="M10.49,18.99h-2c-.83,0-1.5-.67-1.5-1.5v-.57c0-.21-.15-.41-.37-.5s-.46-.06-.61.09l-.4.4c-.57.57-1.56.57-2.12,0l-1.41-1.41c-.58-.58-.58-1.54,0-2.12l.4-.4c.15-.15.19-.39.09-.61-.09-.22-.29-.38-.5-.38h-.57c-.83,0-1.5-.67-1.5-1.5v-2c0-.83.67-1.5,1.5-1.5h.57c.21,0,.41-.15.5-.37s.06-.46-.09-.61l-.4-.4c-.58-.58-.58-1.54,0-2.12l1.42-1.41c.59-.58,1.54-.58,2.12,0l.4.4c.15.15.39.19.61.09.22-.09.37-.29.37-.5v-.57c0-.83.67-1.5,1.5-1.5h2c.83,0,1.5.67,1.5,1.5v.57c0,.21.15.41.37.5s.46.06.61-.09l.4-.4c.58-.58,1.53-.59,2.12,0l1.41,1.42c.58.58.58,1.54,0,2.12l-.4.4c-.15.15-.19.39-.09.61.09.22.29.37.5.37h.57c.83,0,1.5.67,1.5,1.5v2c0,.83-.67,1.5-1.5,1.5h-.57c-.21,0-.41.15-.5.37s-.06.46.09.61l.4.4c.58.58.58,1.54,0,2.12l-1.41,1.41c-.59.58-1.54.59-2.12,0l-.4-.4c-.15-.15-.39-.19-.61-.09-.22.09-.38.29-.38.5v.57c0,.83-.67,1.5-1.5,1.5ZM6.37,15.37c.21,0,.42.04.63.13.6.25.99.81.99,1.43v.57c0,.28.22.5.5.5h2c.28,0,.5-.22.5-.5v-.57c0-.62.39-1.18.99-1.43.6-.25,1.27-.13,1.7.31l.4.4c.19.2.51.2.71,0l1.41-1.41c.2-.2.2-.51,0-.71l-.4-.4c-.44-.44-.56-1.1-.31-1.7.25-.6.81-.99,1.43-.99h.57c.28,0,.5-.22.5-.5v-2c0-.28-.22-.5-.5-.5h-.57c-.62,0-1.18-.39-1.43-.99s-.13-1.27.31-1.7l.4-.4c.2-.19.2-.51,0-.71l-1.41-1.41c-.2-.2-.51-.19-.71,0l-.4.4c-.44.44-1.1.56-1.7.31-.6-.25-.99-.81-.99-1.43v-.57c0-.28-.22-.5-.5-.5h-2c-.28,0-.5.22-.5.5v.57c0,.62-.39,1.18-.99,1.43s-1.27.13-1.7-.31l-.4-.4c-.19-.19-.51-.19-.71,0l-1.41,1.41c-.19.19-.19.51,0,.71l.4.4c.44.44.56,1.1.31,1.7s-.81.99-1.43.99h-.57c-.28,0-.5.22-.5.5v2c0,.28.22.5.5.5h.57c.62,0,1.18.39,1.43.99.25.6.13,1.27-.31,1.7l-.4.4c-.19.2-.19.51,0,.71l1.41,1.41c.19.19.52.19.71,0l.4-.4c.29-.29.67-.44,1.07-.44Z"/>
  <path class="st0" d="M9.49,11.99c-1.38,0-2.5-1.12-2.5-2.5s1.12-2.5,2.5-2.5,2.5,1.12,2.5,2.5-1.12,2.5-2.5,2.5ZM9.49,7.99c-.83,0-1.5.67-1.5,1.5s.67,1.5,1.5,1.5,1.5-.67,1.5-1.5-.67-1.5-1.5-1.5Z"/>
  <g>
    <path d="M10.49,18.5h-2c-.56,0-1.01-.45-1.01-1.01v-.57c0-.41-.27-.78-.68-.96-.41-.17-.86-.09-1.15.2l-.4.4c-.19.19-.44.3-.71.3s-.52-.1-.71-.3l-1.41-1.41c-.39-.39-.39-1.04,0-1.43l.4-.4c.29-.29.37-.74.2-1.15-.17-.41-.54-.68-.95-.68h-.57c-.56,0-1.01-.45-1.01-1.01v-2c0-.56.45-1.01,1.01-1.01h.57c.41,0,.78-.27.95-.68.17-.41.09-.86-.2-1.15l-.4-.4c-.39-.39-.39-1.03,0-1.43l1.41-1.41c.39-.39,1.03-.39,1.43,0l.4.4c.29.29.74.37,1.15.2.41-.17.68-.54.68-.95v-.57c0-.56.45-1.01,1.01-1.01h2c.56,0,1.01.45,1.01,1.01v.57c0,.41.27.78.68.95.41.17.86.09,1.15-.2l.4-.4c.39-.39,1.03-.39,1.43,0l1.41,1.41c.39.39.39,1.03,0,1.43l-.4.4c-.29.29-.37.74-.2,1.15.17.41.55.68.96.68h.57c.56,0,1.01.45,1.01,1.01v2c0,.56-.45,1.01-1.01,1.01h-.57c-.41,0-.78.27-.96.68-.17.41-.09.86.2,1.15l.4.4c.39.39.39,1.04,0,1.43l-1.41,1.41c-.39.39-1.03.39-1.43,0l-.4-.4c-.29-.29-.74-.37-1.15-.2-.41.17-.68.55-.68.96v.57c0,.56-.45,1.01-1.01,1.01ZM6.37,15.86c.15,0,.3.03.44.09.42.17.69.55.69.97v.57c0,.55.44.99.99.99h2c.55,0,.99-.44.99-.99v-.57c0-.42.27-.8.69-.97.41-.17.87-.09,1.17.2l.4.4c.39.39,1.01.39,1.4,0l1.41-1.41c.39-.39.39-1.01,0-1.4l-.4-.4c-.3-.29-.38-.75-.2-1.17.17-.42.55-.69.97-.69h.57c.55,0,.99-.44.99-.99v-2c0-.55-.44-.99-.99-.99h-.57c-.42,0-.8-.27-.97-.69-.17-.41-.09-.87.2-1.17l.4-.4c.39-.39.39-1.01,0-1.4l-1.41-1.41c-.39-.39-1.01-.39-1.4,0l-.4.4c-.29.3-.75.38-1.17.2-.42-.17-.69-.56-.69-.97v-.57c0-.55-.44-.99-.99-.99h-2c-.55,0-.99.44-.99.99v.57c0,.42-.27.8-.69.97-.42.17-.87.09-1.17-.2l-.4-.4c-.39-.38-1.01-.38-1.4,0l-1.41,1.41c-.39.39-.39,1.01,0,1.4l.4.4c.3.3.38.75.2,1.17-.17.42-.56.69-.97.69h-.57c-.55,0-.99.44-.99.99v2c0,.55.44.99.99.99h.57c.42,0,.8.27.97.69.17.42.09.87-.2,1.17l-.4.4c-.39.39-.39,1.01,0,1.4l1.41,1.41c.19.19.44.29.7.29s.51-.1.7-.29l.4-.4c.19-.19.45-.29.73-.29Z"/>
    <path d="M9.49,11.5c-1.11,0-2.01-.9-2.01-2.01s.9-2.01,2.01-2.01,2.01.9,2.01,2.01-.9,2.01-2.01,2.01ZM9.49,7.5c-1.1,0-1.99.89-1.99,1.99s.89,1.99,1.99,1.99,1.99-.89,1.99-1.99-.89-1.99-1.99-1.99Z"/>
  </g>
</svg>